<svg width="273" height="300" viewBox="0 0 273 300" fill="none" xmlns="http://www.w3.org/2000/svg">
<g clip-path="url(#clip0_203_196)">
<path d="M172.226 37.5035L172.639 35.9614L172.639 33.9226L172.302 32.2292L170.969 29.9714L168.711 27.7136L165.659 25.0003L163.067 22.6334L160.244 20.3756L157.422 18.1177L154.6 16.6199L152.342 15.8285L149.523 15.8285L145.178 16.6199L140.489 17.5532L135.409 19.2466L132.022 20.94L128.124 23.2071L126.733 25.3137L126.733 27.7136L127.373 29.9714L130.402 31.6686L133.279 33.2661L141.555 36.3098L147.159 36.985L150.167 36.5515L153.665 35.8358L156.674 35.4024L159.476 35.74L162.278 36.0775L163.82 36.4908L166.133 37.1106L166.415 37.5994L166.209 38.3705L164.178 38.2395L159.345 37.7709L156.825 37.9222L153.816 38.3557L151.296 38.5069L147.31 39.5048L144.095 40.7094L141.651 42.1206L139.206 43.5317L136.273 45.2251L132.851 47.2007L129.918 48.8941L127.268 51.0763L125.106 52.9763L123.226 55.3652L121.835 57.4718L120.726 60.0672L120.389 62.8693L121.029 65.1068L122.44 67.551L123.569 69.5064L126.24 71.875L130.274 73.7824L134.309 75.6898L140.553 78.6026L144.408 79.6356L147.981 80.1798L149.523 80.593L151.554 80.724L153.585 80.855L156.387 81.1926L159.678 81.2479L161.916 80.6078L164.642 79.6855L167.369 78.7632L168.629 78.6876L169.4 78.8942L169.682 79.383L169.475 80.1541L168.009 81.0008L164.794 82.2053L160.807 83.2033L156.539 83.7124L151.499 84.0149L147.23 84.524L142.06 86.8575L139.616 88.2686L137.66 89.3975L135.987 91.0153L134.803 92.3508L134.107 93.4041L133.412 94.4574L133.205 95.2285L132.999 95.9996L132.792 96.7706L133.357 97.7483L134.485 99.7037L136.592 101.095L139.206 102.46L142.06 103.041L146.133 103.589L149.523 104.022L152.907 104.022L155.229 104.022L157.987 103.589L160.245 102.223L162.503 100.529L164.196 98.8358L167.019 95.9996L169.841 93.4041L171.534 91.4978L173.792 89.3975L174.921 88.2686L175.482 86.8575L176.395 84.0149L176.395 80.593L176.395 77.9507L177.743 74.5639L178.592 72.3061L179.343 68.3549L179.343 65.5325L179.343 62.1458L179.343 58.1945L178.592 53.6788L177.221 49.1631L175.482 45.4006L174.353 43.4452L173.224 41.4899L172.659 40.5122L172.302 38.7634L172.226 37.5035Z" fill="#744F2D" stroke="#744F2D"/>
<path d="M130.717 47.2022L134.496 46.9752L129.681 49.7843L128.552 50.3488L126.294 52.0422L123.722 54.577L121.778 56.5579L120.085 59.3802L118.956 62.2025L118.758 64.4603L119.52 66.7182L120.085 68.4116L120.649 69.5405L121.778 71.2339L122.907 72.3628L124.6 73.4917L126.858 74.6207L129.116 75.7496L133.632 75.7496L134.761 76.314L123.299 79.5116L117.151 82.4095L111.567 86.2851L107.202 89.8827L99.8642 96.6563L91.9617 106.817L85.7526 119.235L82.3659 132.217L81.3253 142.942L82.3659 154.796L84.6237 165.521L87.2427 173.981L95.634 187.386L102.181 195.338L107.523 200.075L113.354 204.53L125.147 211.409L136.995 214.997L151.852 218.151L161.931 217.547L170.468 216.528L177.463 215.097L182.916 213.252L188.087 210.919L195.419 206.685L204.632 200.063L211.118 194.363L216.268 187.479L223.222 176.946L226.266 168.671L229.441 158.364L230.585 147.927L231.164 136.512L230.201 124.684L228.336 114.681L225.852 106.99L220.131 95.9537L212.435 81.4951L208.766 75.1402L209.255 74.858L210.515 74.7824L212.057 75.1956L214.164 76.5865L216.835 78.955L220.146 83.5612L224.022 89.145L230.513 100.388L234.616 109.752L237.534 120.451L240.039 132.692L241.002 144.52L240.76 153.133L238.583 167.425L235.202 178.503L231.049 189.373L223.682 201.448L215.261 212.828L204.244 223.099L195.521 229.439L187.699 233.955L178.129 238.829L164.986 243.158L152.256 245.945L139.374 246.213L132.793 246.102L135.257 249.241L138.493 252.588L141.935 255.163L144.041 256.554L146.995 259.411L148.688 262.344L145.816 277.69L145.403 279.232L143.447 280.361L141.699 280.719L140.156 280.306L138.463 277.373L137.954 273.104L138.216 269.042L136.24 265.62L133.287 262.763L127.814 260.057L122.699 259.099L118.279 257.089L114.837 254.513L112.654 251.863L110.19 248.723L108.985 245.508L108.759 241.728L108.194 240.75L107.423 240.544L105.674 240.902L106.823 247.408L108.179 253.143L112.977 261.453L113.411 264.462L109.727 270.499L105.761 276.048L102.621 278.512L100.383 279.153L98.5591 278.25L96.9414 276.577L97.0723 274.546L97.8988 271.462L100.192 267.531L100.66 262.698L98.1202 258.299L95.8624 254.388L92.9091 251.53L89.3913 247.695L86.0045 241.829L85.0066 237.843L85.6818 232.239L85.6061 230.979L85.3239 230.49L83.2173 229.099L72.3264 220.396L66.9843 215.659L57.9732 204.567L51.5575 194.583L47.5306 186.48L44.2748 178.583L41.0744 167.395L38.8516 155.642L38.2466 145.563L38.5437 133.659L40.7205 119.367L43.8952 109.061L49.2319 96.8547L56.1108 85.0618L62.2388 77.613L66.0739 74.0953L68.0581 72.3844L70.8804 70.1265L73.6482 68.1887L76.525 66.7775L74.8316 63.9174L73.6482 61.249L73.1382 58.8373L72.63 56.345L72.0093 52.0637L72.5341 46.9012L74.4691 41.2213L76.388 37.7713L77.9464 35.955L80.5717 34.1453L83.6525 32.19L86.2169 31.2973L88.4748 31.157L90.112 32.1899L91.2409 34.1453L90.4145 37.2296L88.817 40.1073L85.7529 43.8316L84.1554 46.7093L83.4046 51.0535L82.6538 55.3977L83.6518 59.3841L86.6853 61.249L88.8524 60.3166L91.0195 59.3841L89.6488 53.9663L91.0195 47.3088L92.7479 42.4002L95.7363 37.4159L98.3115 33.9738L101.733 31.9982L105.155 30.0225L108.371 28.818L111.868 28.1023L114.181 28.7221L116.494 29.3419L117.623 31.2973L117.981 33.046L117.079 34.8704L114.917 36.7704L111.702 37.975L108.28 39.9506L105.629 42.1328L104.238 44.2394L102.359 46.6282L100.479 49.0171L98.8814 51.8947L98.957 53.1547L99.5216 54.1325L99.8038 54.6213L100.857 55.3168L102.888 55.4477L107.363 54.1676L113.305 52.0407L118.758 50.1961L123.722 48.6337L127.708 47.6357L130.717 47.2022Z" fill="#744F2D"/>
<path d="M91.0195 59.3841L89.6488 53.9663L91.0195 47.3088L92.7479 42.4002L95.7363 37.4159L98.3115 33.9738L101.733 31.9982L105.155 30.0225L108.371 28.818L111.868 28.1023L114.181 28.7221L116.494 29.3419L117.623 31.2973L117.981 33.046L117.079 34.8704L114.917 36.7704L111.702 37.975L108.28 39.9506L105.629 42.1328L104.238 44.2394L102.359 46.6282L100.479 49.0171L98.8814 51.8947L98.957 53.1547L99.5216 54.1325L99.8038 54.6213L100.857 55.3168L102.888 55.4477L107.363 54.1676L113.305 52.0407L118.758 50.1961L123.722 48.6337L127.708 47.6357L130.717 47.2022L134.496 46.9752L129.681 49.7843L128.552 50.3488L126.294 52.0422L123.722 54.577L121.778 56.5579L120.085 59.3802L118.956 62.2025L118.758 64.4603L119.52 66.7182L120.085 68.4116L120.649 69.5405L121.778 71.2339L122.907 72.3628L124.6 73.4917L126.858 74.6207L129.116 75.7496L133.632 75.7496L134.761 76.314L123.299 79.5116L117.151 82.4095L111.567 86.2851L107.202 89.8827L99.8642 96.6563L91.9617 106.817L85.7526 119.235L82.3659 132.217L81.3253 142.942L82.3659 154.796L84.6237 165.521L87.2427 173.981L95.634 187.386L102.181 195.338L107.523 200.075L113.354 204.53L125.147 211.409L136.995 214.997L151.852 218.152L161.931 217.547L170.468 216.528L177.463 215.097L182.916 213.252L188.087 210.919L195.419 206.685L204.632 200.063L211.118 194.363L216.268 187.479L223.222 176.946L226.266 168.671L229.441 158.364L230.585 147.927L231.164 136.512L230.201 124.684L228.336 114.681L225.852 106.99L220.131 95.9537L212.435 81.4951L208.766 75.1402L209.255 74.858L210.515 74.7824L212.057 75.1956L214.164 76.5865L216.835 78.955L220.146 83.5612L224.022 89.145L230.513 100.388L234.616 109.752L237.534 120.451L240.039 132.692L241.002 144.52L240.76 153.133L238.583 167.425L235.202 178.503L231.049 189.373L223.682 201.448L215.261 212.828L204.244 223.099L195.521 229.439L187.699 233.955L178.129 238.829L164.986 243.158L152.256 245.945L139.374 246.213L132.793 246.102L135.257 249.241L138.493 252.588L141.935 255.163L144.041 256.554L146.995 259.411L148.688 262.344L145.816 277.69L145.403 279.232L143.447 280.361L141.699 280.719L140.156 280.306L138.463 277.373L137.954 273.104L138.216 269.042L136.24 265.62L133.287 262.763L127.814 260.057L122.699 259.099L118.279 257.089L114.837 254.513L112.654 251.863L110.19 248.723L108.985 245.508L108.759 241.728L108.194 240.75L107.423 240.544L105.674 240.902L106.823 247.408L108.179 253.143L112.977 261.453L113.411 264.462L109.727 270.499L105.761 276.048L102.621 278.512L100.383 279.153L98.5591 278.25L96.9413 276.577L97.0723 274.546L97.8988 271.462L100.192 267.531L100.66 262.698L98.1202 258.299L95.8624 254.388L92.9091 251.53L89.3913 247.695L86.0045 241.829L85.0066 237.843L85.6818 232.239L85.6061 230.979L85.3239 230.49L83.2173 229.099L72.3264 220.396L66.9843 215.659L57.9732 204.567L51.5575 194.583L47.5306 186.48L44.2748 178.583L41.0744 167.395L38.8516 155.642L38.2466 145.563L38.5437 133.659L40.7205 119.367L43.8952 109.061L49.2319 96.8547L56.1108 85.0618L62.2388 77.613L66.0739 74.0953L68.0581 72.3844L70.8804 70.1265L73.6482 68.1887L76.525 66.7775L74.8316 63.9174L73.6482 61.249L73.1382 58.8373L72.63 56.345L72.0093 52.0637L72.5341 46.9012L74.4691 41.2213L76.388 37.7713L77.9464 35.955L80.5717 34.1453L83.6525 32.19L86.2169 31.2973L88.4748 31.157L90.112 32.1899L91.2409 34.1453L90.4145 37.2296L88.817 40.1072L85.7529 43.8316L84.1554 46.7093L83.4046 51.0535L82.6538 55.3977L83.6518 59.3841L86.6853 61.249M91.0195 59.3841L90.0445 56.345M91.0195 59.3841L86.6853 61.249M86.6853 61.249L88.8524 60.3166" stroke="#744F2D" stroke-width="3"/>
<path d="M131.376 48.0909L135.287 45.833L134.481 53.4681L133.045 54.2999L131.352 55.4289L130.081 56.0082L128.821 56.0838L126.977 56.0082L123.471 58.2512L122.885 58.8156L122.342 59.3801L121.778 59.9446L121.213 61.638L121.213 62.7669L121.213 63.8958L121.778 65.0247L122.342 65.5892L123.471 66.7181L125.729 68.4115L127.965 69.1717L129.956 68.6716L131.815 68.0428L133.61 68.0428L135.303 68.976L136.432 70.1049L136.875 71.3134L137.561 72.9272L137.949 74.4382L137.949 75.7495L137.949 77.5373L129.956 74.9824L126.272 73.4917L121.887 71.1676L119.498 68.976L118.369 67.2826L117.24 65.0247L117.089 62.8573L117.24 60.509L117.633 59.2842L118.369 57.6867L119.498 56.0082L121.192 54.2999L122.885 53.171L126.977 50.6309L131.376 48.0909Z" fill="white" stroke="white"/>
<path d="M127.168 62.2524L126.858 58.8157L127.422 58.8157L128.551 59.3801L129.116 59.9446L129.376 60.7872L129.659 61.638L129.659 62.7669L129.659 63.3314L129.659 63.8959L129.659 64.4603L129.659 65.0248L129.376 65.7133L129.116 66.1537L127.987 66.7182L127.422 66.7182L127.401 66.1537L127.401 65.5892L127.32 64.7722L127.168 62.2524Z" fill="white" stroke="white" stroke-width="0.5"/>
<path d="M157.389 40.8142L156.825 40.2497L156.26 39.6853L155.696 39.1208L155.696 38.5563L156.825 37.9919L157.389 37.9919L158.518 37.9919L159.647 38.5563L160.212 39.1208L161.341 40.2497L162.469 41.9431L163.034 43.6365L163.034 44.7654L162.599 46.1101L161.903 47.1634L160.925 47.7279L160.154 47.5213L159.59 46.5436L159.647 45.3299L159.59 44.7654L159.083 43.072L157.954 41.3786L157.389 40.8142Z" fill="white" stroke="#744F2D"/>
<path d="M155.696 40.8141L154.661 40.2643L154.117 39.9674L153.438 39.6852L152.874 39.6852L152.309 39.6852L151.411 39.9675L150.051 40.8141L148.926 41.6201L147.742 42.9556L147.046 44.0089L146.633 45.5511L146.709 46.811L147.555 48.2775L149.38 49.1796L151.411 49.3105L152.671 49.2349L154.567 48.7166L155.696 48.1522L156.825 47.0232L157.125 45.8943L157.201 44.6638L157.125 43.4039L156.825 42.5075L156.26 41.3786L155.696 40.8141Z" stroke="white" stroke-width="0.8"/>
<path d="M152.65 44.6841L153.628 44.1196L154.399 44.3262L154.963 45.3039L155.246 45.7928L155.039 46.5638L154.061 47.1283L153.572 47.4105C153.315 47.3417 152.745 47.1061 152.519 46.7151L151.955 45.7374L152.65 44.6841Z" fill="white" stroke="#744F2D"/>
<path d="M160.776 77.8653L160.212 78.4297L159.647 78.9942L159.083 79.5587L159.083 80.1231L160.212 80.6876L160.776 80.6876L161.905 80.6876L163.034 80.1231L163.598 79.5587L164.727 78.4297L165.856 76.7363L166.421 75.043L166.421 73.914L165.985 72.5693L165.29 71.516L164.312 70.9515L163.541 71.1582L162.977 72.1358L163.034 73.3496L162.977 73.914L162.469 75.6074L161.341 77.3008L160.776 77.8653Z" fill="white" stroke="#744F2D"/>
<path d="M159.083 77.8653L158.048 78.4151L157.504 78.712L156.825 78.9942L156.26 78.9942L155.696 78.9942L154.797 78.712L153.438 77.8653L152.313 77.0593L151.128 75.7238L150.433 74.6705L150.02 73.1284L150.095 71.8685L150.942 70.4019L152.766 69.4999L154.797 69.3689L156.057 69.4445L157.954 69.9628L159.083 70.5273L160.212 71.6562L160.512 72.7851L160.588 74.0156L160.512 75.2755L160.212 76.1719L159.647 77.3008L159.083 77.8653Z" stroke="white" stroke-width="0.8"/>
<path d="M156.037 73.9953L157.015 74.5598L157.786 74.3532L158.35 73.3755L158.632 72.8867L158.426 72.1156L157.448 71.5512L156.959 71.2689C156.702 71.3378 156.132 71.5733 155.906 71.9644L155.341 72.942L156.037 73.9953Z" fill="white" stroke="#744F2D"/>
<path d="M127.579 116.817V114H138.632H143.763H150.869H154.027L156 114.805V118.024V121.243L154.816 122.45H154.027L153.632 120.84L149.684 121.243L147.5 122.45V129.5V136V146V155.5V160L147 163L146 167.5L144.5 170.5L143 173L140 176L138 178L135.869 179.5L133.5 181L131 182H127.579L124.421 181.5L122.053 180.793L119 179.5L116.132 177.172L114.5 175L112.974 171.941L112.184 168.722L111.5 164.698L111 159.5V154.639L112 156L113 154L114 154.5L114.5 153.5L115.5 153L116.921 153.5V154.639L117.316 161.077L117.711 164.698L119.684 170.331L120.474 171.941L122.448 173.55L124.421 173.953L126.79 173.55L129.948 171.941L132.711 168.722L135.869 163.491L137.053 156.651V150.615V140.556V133.314V126.473V122.928V120.438L135.869 121.243L132.711 122.45H129.948H127.579V120.438L126.79 118.024L127.579 116.817Z" fill="#473D34" stroke="#473D34"/>
<path d="M88.3336 140.909L101 126L105 129.195L103.667 132.922L99.6669 139.844L95.3336 144.636L96.0002 147.299L105 164.338L99.6669 167L87.0002 143.571L89.3336 144.636L91.3336 140.909H88.3336Z" fill="#473D34" stroke="#473D34"/>
<path d="M214.077 148.966L207 130.398L207.616 127.955L209.769 126H213.154L214.077 127.955V129.42L217.462 136.75L219.923 143.591L221.769 147.5L223 149.943L218.077 159.227L213.154 168.023V165.58L209.769 169L210.385 167.045L208.231 165.58V164.602V162.648L210.385 156.295L214.077 149.943V148.966Z" fill="#473D34" stroke="#473D34"/>
<path d="M174.445 115.381L170.297 116.418V119.18V123.325L169.704 129.887L168.519 137.139L165.852 150.263L163.185 164.768L162 171.675L162.593 176.51L164.667 179.619L168.519 181H172.667L181.26 177.892L189.852 173.402L193.408 171.675L194 169.948L193.408 168.912V167.531L190.445 168.222L191.926 166.149L188.371 167.531L180.371 170.639L174.445 172.711V170.639V167.531L175.63 159.242L178.297 143.356L180.371 130.923L177.408 131.268L180.667 129.887L181.26 123.325L181.852 117.108L181.26 114.691H179.482L178.297 114L175.63 114.691V116.418L174.445 115.381Z" fill="#473D34" stroke="#473D34"/>
</g>
<defs>
<clipPath id="clip0_203_196">
<rect width="273" height="300" fill="white"/>
</clipPath>
</defs>
</svg>
