<svg width="280" height="280" viewBox="0 0 280 280" fill="none" xmlns="http://www.w3.org/2000/svg">
<g clip-path="url(#clip0_208_181)">
<rect width="280" height="280" rx="50" fill="white"/>
<rect x="1.5" y="1.5" width="277" height="277" rx="48.5" fill="#F7EEE6" stroke="#723B22" stroke-width="3"/>
<path d="M165.429 28.8564L165.842 27.3143L165.842 25.2755L165.505 23.5821L164.172 21.3243L161.914 19.0665L158.862 16.3532L156.27 13.9863L153.447 11.7285L150.625 9.47062L147.803 7.97278L145.545 7.18144L142.726 7.18144L138.381 7.97278L133.692 8.90613L128.612 10.5995L125.225 12.2929L121.327 14.56L119.936 16.6666L119.936 19.0665L120.576 21.3243L123.605 23.0215L126.483 24.619L134.758 27.6628L140.362 28.3379L143.371 27.9045L146.868 27.1887L149.877 26.7553L152.679 27.0929L155.481 27.4304L157.023 27.8437L159.336 28.4635L159.618 28.9523L159.412 29.7234L157.381 29.5924L152.548 29.1238L150.028 29.2751L147.019 29.7086L144.499 29.8598L140.513 30.8578L137.298 32.0623L134.854 33.4735L132.409 34.8846L129.476 36.578L126.055 38.5536L123.122 40.247L120.471 42.4292L118.309 44.3292L116.429 46.7181L115.038 48.8247L113.929 51.4201L113.592 54.2222L114.232 56.4597L115.643 58.9039L116.772 60.8593L119.443 63.2279L123.477 65.1353L127.512 67.0427L133.756 69.9555L137.611 70.9885L141.184 71.5327L142.726 71.9459L144.757 72.0769L146.788 72.2079L149.59 72.5455L152.881 72.6008L155.119 71.9607L157.845 71.0384L160.572 70.1161L161.832 70.0405L162.603 70.2471L162.885 70.7359L162.678 71.507L161.212 72.3537L157.997 73.5582L154.01 74.5562L149.742 75.0653L144.702 75.3678L140.434 75.8769L135.263 78.2104L132.819 79.6215L130.863 80.7504L129.19 82.3682L128.006 83.7037L127.311 84.757L126.615 85.8103L126.408 86.5814L126.202 87.3525L125.995 88.1236L126.56 89.1012L127.689 91.0566L129.795 92.4475L132.409 93.8127L135.263 94.3944L139.336 94.9416L142.726 95.3751L146.11 95.3751L148.432 95.3751L151.19 94.9416L153.448 93.5755L155.706 91.8821L157.399 90.1887L160.222 87.3525L163.044 84.757L164.737 82.8507L166.995 80.7504L168.124 79.6215L168.685 78.2104L169.598 75.3678L169.598 71.9459L169.598 69.3036L170.946 65.9169L171.795 63.659L172.546 59.7078L172.546 56.8854L172.546 53.4987L172.546 49.5474L171.795 45.0317L170.424 40.516L168.685 36.7535L167.556 34.7981L166.427 32.8428L165.863 31.8651L165.505 30.1163L165.429 28.8564Z" fill="black" stroke="#723B22"/>
<path d="M123.92 38.5553L127.7 38.3283L122.884 41.1373L121.755 41.7018L119.497 43.3952L116.925 45.93L114.982 47.9109L113.288 50.7332L112.159 53.5555L111.961 55.8134L112.724 58.0712L113.288 59.7646L113.853 60.8935L114.982 62.5869L116.111 63.7158L117.804 64.8448L120.062 65.9737L122.32 67.1026L126.835 67.1026L127.964 67.6671L116.503 70.8646L110.355 73.7625L104.771 77.6381L100.406 81.2357L93.0678 88.0093L85.1653 98.1696L78.9563 110.588L75.5695 123.57L74.5289 134.295L75.5695 146.149L77.8273 156.874L80.4463 165.334L88.8376 178.739L95.3843 186.691L100.726 191.428L106.557 195.883L118.35 202.762L130.199 206.35L145.056 209.505L155.135 208.9L163.672 207.881L170.667 206.45L176.12 204.605L181.29 202.272L188.623 198.038L197.835 191.416L204.321 185.716L209.472 178.832L216.426 168.299L219.47 160.024L222.645 149.717L223.788 139.28L224.368 127.866L223.405 116.037L221.54 106.034L219.055 98.3434L213.335 87.3067L205.639 72.8482L201.97 66.4933L202.459 66.211L203.719 66.1354L205.261 66.5486L207.368 67.9395L210.039 70.3081L213.35 74.9142L217.225 80.4981L223.717 91.7414L227.819 101.105L230.737 111.804L233.242 124.045L234.205 135.873L233.963 144.486L231.787 158.779L228.405 169.856L224.253 180.726L216.885 192.801L208.464 204.181L197.448 214.452L188.724 220.792L180.903 225.308L171.333 230.182L158.189 234.511L145.459 237.298L132.578 237.566L125.996 237.455L128.461 240.594L131.696 243.941L135.138 246.516L137.245 247.907L140.198 250.764L141.892 253.697L139.019 269.043L138.606 270.585L136.651 271.714L134.902 272.072L133.36 271.659L131.667 268.726L131.158 264.457L131.419 260.395L129.444 256.973L126.491 254.116L121.017 251.41L115.902 250.452L111.482 248.442L108.04 245.866L105.858 243.216L103.394 240.076L102.189 236.861L101.962 233.081L101.398 232.103L100.627 231.897L98.8778 232.255L100.027 238.761L101.383 244.496L106.181 252.806L106.614 255.815L102.93 261.852L98.9643 267.401L95.8247 269.865L93.5871 270.506L91.7627 269.604L90.145 267.93L90.2759 265.899L91.1024 262.815L93.3953 258.884L93.8639 254.051L91.3238 249.652L89.066 245.741L86.1127 242.883L82.5949 239.048L79.2081 233.182L78.2102 229.196L78.8854 223.592L78.8098 222.332L78.5275 221.843L76.4209 220.452L65.53 211.749L60.1879 207.012L51.1768 195.92L44.7611 185.936L40.7342 177.833L37.4784 169.936L34.278 158.748L32.0552 146.995L31.4503 136.916L31.7473 125.012L33.9241 110.72L37.0989 100.414L42.4356 88.2077L49.3144 76.4148L55.4424 68.9661L59.2775 65.4483L61.2617 63.7374L64.084 61.4796L66.8518 59.5417L69.7286 58.1305L68.0352 55.2705L66.8518 52.6021L66.3418 50.1903L65.8336 47.698L65.2129 43.4167L65.7377 38.2542L67.6727 32.5744L69.5916 29.1244L71.15 27.308L73.7753 25.4983L76.8561 23.543L79.4205 22.6503L81.6784 22.5101L83.3156 23.543L84.4445 25.4983L83.6181 28.5826L82.0206 31.4603L78.9566 35.1846L77.3591 38.0623L76.6083 42.4065L75.8574 46.7507L76.8555 50.7372L79.889 52.6021L82.056 51.6696L84.2231 50.7372L82.8524 45.3193L84.2231 38.6619L85.9515 33.7532L88.9399 28.7689L91.5151 25.3268L94.937 23.3512L98.3589 21.3756L101.574 20.171L105.072 19.4553L107.385 20.0751L109.698 20.695L110.827 22.6503L111.185 24.3991L110.283 26.2234L108.121 28.1234L104.906 29.328L101.484 31.3036L98.8329 33.4858L97.442 35.5924L95.5622 37.9813L93.6825 40.3701L92.085 43.2478L92.1606 44.5077L92.7252 45.4855L93.0074 45.9743L94.0607 46.6698L96.0917 46.8008L100.567 45.5206L106.509 43.3937L111.961 41.5491L116.925 39.9867L120.912 38.9887L123.92 38.5553Z" fill="#1F1304"/>
<path d="M84.2231 50.7372L82.8524 45.3193L84.2231 38.6619L85.9516 33.7532L88.9399 28.7689L91.5151 25.3268L94.937 23.3512L98.3589 21.3756L101.574 20.171L105.072 19.4553L107.385 20.0751L109.698 20.695L110.827 22.6503L111.185 24.3991L110.283 26.2234L108.121 28.1234L104.906 29.328L101.484 31.3036L98.8329 33.4858L97.442 35.5924L95.5622 37.9813L93.6825 40.3701L92.085 43.2478L92.1606 44.5077L92.7252 45.4855L93.0074 45.9743L94.0607 46.6698L96.0917 46.8008L100.567 45.5206L106.509 43.3937L111.961 41.5491L116.925 39.9867L120.912 38.9887L123.92 38.5553L127.7 38.3283L122.884 41.1373L121.755 41.7018L119.497 43.3952L116.925 45.93L114.982 47.9109L113.288 50.7332L112.159 53.5555L111.961 55.8134L112.724 58.0712L113.288 59.7646L113.853 60.8935L114.982 62.5869L116.111 63.7158L117.804 64.8448L120.062 65.9737L122.32 67.1026L126.835 67.1026L127.964 67.6671L116.503 70.8646L110.355 73.7625L104.771 77.6381L100.406 81.2357L93.0678 88.0093L85.1653 98.1696L78.9563 110.588L75.5695 123.57L74.5289 134.295L75.5695 146.149L77.8273 156.874L80.4463 165.334L88.8376 178.739L95.3843 186.691L100.726 191.428L106.557 195.883L118.35 202.762L130.199 206.35L145.056 209.505L155.135 208.9L163.672 207.881L170.667 206.45L176.12 204.605L181.29 202.272L188.623 198.038L197.835 191.416L204.321 185.716L209.472 178.832L216.426 168.299L219.47 160.024L222.645 149.717L223.788 139.28L224.368 127.866L223.405 116.037L221.54 106.034L219.055 98.3434L213.335 87.3067L205.639 72.8482L201.97 66.4933L202.459 66.211L203.719 66.1354L205.261 66.5486L207.368 67.9395L210.039 70.3081L213.35 74.9142L217.225 80.4981L223.717 91.7414L227.819 101.105L230.737 111.804L233.242 124.045L234.205 135.873L233.963 144.486L231.787 158.779L228.405 169.856L224.253 180.726L216.885 192.801L208.464 204.181L197.448 214.452L188.724 220.792L180.903 225.308L171.333 230.182L158.189 234.511L145.459 237.298L132.578 237.566L125.996 237.455L128.461 240.594L131.696 243.941L135.138 246.516L137.245 247.907L140.198 250.764L141.892 253.697L139.019 269.043L138.606 270.585L136.651 271.714L134.902 272.072L133.36 271.659L131.667 268.726L131.158 264.457L131.419 260.395L129.444 256.973L126.491 254.116L121.017 251.41L115.902 250.452L111.482 248.442L108.04 245.866L105.858 243.216L103.394 240.076L102.189 236.861L101.962 233.081L101.398 232.103L100.627 231.897L98.8778 232.255L100.027 238.761L101.383 244.496L106.181 252.806L106.614 255.815L102.93 261.852L98.9643 267.401L95.8247 269.865L93.5871 270.506L91.7627 269.604L90.145 267.93L90.2759 265.899L91.1024 262.815L93.3953 258.884L93.8639 254.051L91.3238 249.652L89.066 245.741L86.1127 242.883L82.5949 239.048L79.2081 233.182L78.2102 229.196L78.8854 223.592L78.8098 222.332L78.5275 221.843L76.4209 220.452L65.53 211.749L60.1879 207.012L51.1768 195.92L44.7611 185.936L40.7342 177.833L37.4784 169.936L34.278 158.748L32.0552 146.995L31.4503 136.916L31.7473 125.012L33.9241 110.72L37.0989 100.414L42.4356 88.2077L49.3144 76.4148L55.4424 68.9661L59.2775 65.4483L61.2617 63.7374L64.084 61.4796L66.8518 59.5417L69.7286 58.1305L68.0352 55.2705L66.8518 52.6021L66.3418 50.1903L65.8336 47.698L65.2129 43.4167L65.7377 38.2542L67.6727 32.5744L69.5916 29.1244L71.15 27.308L73.7753 25.4983L76.8561 23.543L79.4205 22.6503L81.6784 22.5101L83.3156 23.543L84.4445 25.4983L83.6181 28.5826L82.0206 31.4603L78.9566 35.1846L77.3591 38.0623L76.6083 42.4065L75.8574 46.7507L76.8555 50.7372L79.8889 52.6021M84.2231 50.7372L83.2481 47.698M84.2231 50.7372L79.8889 52.6021M79.8889 52.6021L82.056 51.6696" stroke="black" stroke-width="3"/>
<path d="M124.58 39.4439L128.49 37.186L127.684 44.8211L126.249 45.653L124.555 46.7819L123.285 47.3612L122.025 47.4368L120.18 47.3612L116.674 49.6042L116.088 50.1687L115.545 50.7331L114.981 51.2976L114.417 52.991L114.417 54.1199L114.417 55.2488L114.981 56.3778L115.545 56.9422L116.674 58.0712L118.932 59.7645L121.168 60.5247L123.159 60.0247L125.018 59.3958L126.813 59.3958L128.506 60.329L129.635 61.4579L130.078 62.6664L130.764 64.2802L131.152 65.7913L131.152 67.1026L131.152 68.8904L123.159 66.3355L119.475 64.8447L115.09 62.5206L112.702 60.329L111.573 58.6356L110.444 56.3778L110.292 54.2104L110.444 51.8621L110.837 50.6373L111.573 49.0397L112.702 47.3612L114.395 45.653L116.088 44.524L120.18 41.984L124.58 39.4439Z" fill="white" stroke="white"/>
<path d="M120.372 53.6053L120.061 50.1686L120.626 50.1686L121.754 50.7331L122.319 51.2975L122.58 52.1401L122.862 52.9909L122.862 54.1198L122.862 54.6843L122.862 55.2488L122.862 55.8132L122.862 56.3777L122.58 57.0662L122.319 57.5066L121.19 58.0711L120.626 58.0711L120.604 57.5066L120.604 56.9421L120.523 56.1251L120.372 53.6053Z" fill="white" stroke="white" stroke-width="0.5"/>
<path d="M150.593 32.167L150.028 31.6025L149.464 31.038L148.9 30.4736L148.9 29.9091L150.028 29.3446L150.593 29.3446L151.722 29.3447L152.851 29.9091L153.415 30.4736L154.544 31.6025L155.673 33.2959L156.237 34.9893L156.238 36.1182L155.802 37.4629L155.107 38.5162L154.129 39.0807L153.358 38.8741L152.793 37.8964L152.851 36.6827L152.793 36.1182L152.286 34.4248L151.157 32.7314L150.593 32.167Z" fill="white" stroke="#723B22"/>
<path d="M148.899 32.1669L147.864 31.6171L147.32 31.3202L146.641 31.038L146.077 31.038L145.512 31.038L144.614 31.3202L143.254 32.1669L142.129 32.9729L140.945 34.3084L140.249 35.3617L139.836 36.9039L139.912 38.1638L140.758 39.6303L142.583 40.5323L144.614 40.6633L145.874 40.5877L147.77 40.0694L148.899 39.5049L150.028 38.376L150.329 37.2471L150.404 36.0166L150.329 34.7567L150.028 33.8603L149.464 32.7314L148.899 32.1669Z" fill="black" stroke="white" stroke-width="0.8"/>
<path d="M145.854 36.0371L146.831 35.4727L147.603 35.6793L148.167 36.6569L148.449 37.1458L148.243 37.9169L147.265 38.4813L146.776 38.7636C146.519 38.6947 145.949 38.4592 145.723 38.0681L145.158 37.0904L145.854 36.0371Z" fill="white" stroke="black" stroke-width="0.5"/>
<path d="M153.98 69.2185L153.415 69.783L152.851 70.3475L152.286 70.9119L152.286 71.4764L153.415 72.0409L153.98 72.0408L155.109 72.0408L156.238 71.4764L156.802 70.9119L157.931 69.783L159.06 68.0896L159.624 66.3962L159.624 65.2673L159.189 63.9226L158.493 62.8693L157.516 62.3048L156.745 62.5114L156.18 63.4891L156.238 64.7028L156.18 65.2673L155.673 66.9607L154.544 68.6541L153.98 69.2185Z" fill="white" stroke="#723B22"/>
<path d="M152.286 69.2186L151.251 69.7684L150.707 70.0653L150.028 70.3475L149.464 70.3475L148.899 70.3475L148.001 70.0653L146.641 69.2186L145.516 68.4126L144.332 67.0771L143.636 66.0238L143.223 64.4816L143.299 63.2217L144.145 61.7552L145.97 60.8532L148.001 60.7222L149.26 60.7978L151.157 61.3161L152.286 61.8806L153.415 63.0095L153.715 64.1384L153.791 65.3689L153.715 66.6288L153.415 67.5252L152.85 68.6541L152.286 69.2186Z" fill="black" stroke="white" stroke-width="0.8"/>
<path d="M149.241 65.3484L150.218 65.9128L150.989 65.7062L151.554 64.7286L151.836 64.2397L151.629 63.4686L150.652 62.9042L150.163 62.6219C149.906 62.6908 149.335 62.9263 149.11 63.3174L148.545 64.2951L149.241 65.3484Z" fill="white" stroke="black" stroke-width="0.5"/>
<path d="M113.204 106.501L113.204 103.353L127.204 103.353L133.704 103.353L142.704 103.353L146.704 103.353L149.204 104.252L149.204 107.85L149.204 111.448L147.704 112.797L146.704 112.797L146.204 110.998L141.204 111.448L138.437 112.797L138.437 120.677L138.437 127.941L138.437 139.118L138.437 149.735L138.437 154.765L137.804 158.118L136.537 163.147L134.637 166.5L132.737 169.294L128.937 172.647L126.404 174.882L123.704 176.559L120.704 178.235L117.537 179.353L113.204 179.353L109.204 178.794L106.204 178.004L102.337 176.559L98.7036 173.957L96.6369 171.529L94.7036 168.11L93.7036 164.513L92.8369 160.016L92.2036 154.206L92.2036 148.773L93.4703 150.294L94.7369 148.059L96.0036 148.618L96.6369 147.5L97.9036 146.941L99.7036 147.5L99.7036 148.773L100.204 155.968L100.704 160.016L103.204 166.312L104.204 168.11L106.704 169.909L109.204 170.359L112.204 169.909L116.204 168.11L119.704 164.513L123.704 158.667L125.204 151.022L125.204 144.276L125.204 133.033L125.204 124.939L125.204 117.294L125.204 113.331L125.204 110.548L123.704 111.448L119.704 112.797L116.204 112.797L113.204 112.797L113.204 110.548L112.204 107.85L113.204 106.501Z" fill="black" fill-opacity="0.81" stroke="#595959"/>
<path d="M173.037 102.982L166.426 104.204L166.426 107.461L166.426 112.348L165.481 120.085L163.593 128.637L159.343 144.111L155.093 161.214L153.204 169.358L153.204 170.853L153.204 172.353L153.704 174.353L154.079 175.059L155.204 176.853L156.204 177.853L157.503 178.742L158.704 179.353L160.322 179.871L162.204 180.353L164.204 180.853L167.204 180.853L170.204 180.853L176.204 179.853L180.204 178.724L183.704 177.353L187.704 175.853L191.704 174.353L197.704 171.853L203.259 169.358L204.204 167.322L203.259 166.1L203.259 164.472L198.537 165.286L200.898 162.843L195.231 164.472L182.481 168.137L173.037 170.58L173.037 168.137L173.037 164.472L174.926 154.698L179.176 135.966L182.204 122.353L182.704 120.853L183.204 118.353L183.898 112.348L184.843 105.018L183.898 102.167L181.065 102.167L179.176 101.353L174.926 102.167L174.926 104.204L173.037 102.982Z" fill="black" fill-opacity="0.81" stroke="#595959"/>
</g>
<defs>
<clipPath id="clip0_208_181">
<rect width="280" height="280" rx="50" fill="white"/>
</clipPath>
</defs>
</svg>
