<svg width="150" height="140" viewBox="0 0 150 140" fill="none" xmlns="http://www.w3.org/2000/svg">
<rect x="1.5" y="1.5" width="147" height="137" rx="18.5" fill="white"/>
<path d="M47.5789 36.9408V34H58.6316H63.7632H70.8684H74.0263L76 34.8402V38.2012V41.5621L74.8158 42.8225H74.0263L73.6316 41.142L69.6842 41.5621L67.5 42.8225V50.1838V56.9706V67.4118V77.3309V82.0294L67 85.1618L66 89.8603L64.5 92.9926L63 95.6029L60 98.7353L58 100.824L55.8684 102.39L53.5 103.956L51 105H47.5789L44.4211 104.478L42.0526 103.74L39 102.39L36.1316 99.9586L34.5 97.6912L32.9737 94.497L32.1842 91.1361L31.5 86.9349L31 81.5074V76.4319L32 77.8529L33 75.7647L34 76.2868L34.5 75.2426L35.5 74.7206L36.9211 75.2426V76.4319L37.3158 83.1538L37.7105 86.9349L39.6842 92.8166L40.4737 94.497L42.4474 96.1775L44.4211 96.5976L46.7895 96.1775L49.9474 94.497L52.7105 91.1361L55.8684 85.6746L57.0526 78.5325V72.2308V61.7278V54.1657V47.0237V43.322V40.7219L55.8684 41.5621L52.7105 42.8225H49.9474H47.5789V40.7219L46.7895 38.2012L47.5789 36.9408Z" fill="black" stroke="black"/>
<path d="M8.33333 64L21 48L25 51.4286L23.6667 55.4286L19.6667 62.8571L15.3333 68L16 70.8571L25 89.1429L19.6667 92L7 66.8571L9.33333 68L11.3333 64H8.33333Z" fill="black" stroke="black"/>
<path d="M133.077 71.5682L126 51.7045L126.615 49.0909L128.769 47H132.154L133.077 49.0909V50.6591L136.462 58.5L138.923 65.8182L140.769 70L142 72.6136L137.077 82.5455L132.154 91.9545V89.3409L128.769 93L129.385 90.9091L127.231 89.3409V88.2955V86.2045L129.385 79.4091L133.077 72.6136V71.5682Z" fill="black" stroke="black"/>
<path d="M94.4444 36.4433L90.2963 37.5258V40.4124V44.7423L89.7037 51.5979L88.5185 59.1753L85.8519 72.8866L83.1852 88.0412L82 95.2577L82.5926 100.309L84.6667 103.557L88.5185 105H92.6667L101.259 101.753L109.852 97.0619L113.407 95.2577L114 93.4536L113.407 92.3711V90.9278L110.444 91.6495L111.926 89.4845L108.37 90.9278L100.37 94.1753L94.4444 96.3402V94.1753V90.9278L95.6296 82.268L98.2963 65.6701L100.37 52.6804L97.4074 53.0412L100.667 51.5979L101.259 44.7423L101.852 38.2474L101.259 35.7216H99.4815L98.2963 35L95.6296 35.7216V37.5258L94.4444 36.4433Z" fill="black" stroke="black"/>
<rect x="1.5" y="1.5" width="147" height="137" rx="18.5" stroke="white" stroke-width="3"/>
</svg>
