<svg width="772" height="134" viewBox="0 0 772 134" fill="none" xmlns="http://www.w3.org/2000/svg">
<rect width="772" height="134" fill="#1E1F22"/>
<path d="M236.293 96.088L262.917 42.2H273.093L246.597 96.088H236.293ZM268.481 96.088L295.105 42.2H305.281L278.785 96.088H268.481Z" fill="#F24E1E"/>
<path d="M322.735 87.64C321.114 87.64 319.578 87.448 318.127 87.064C316.677 86.7227 315.354 86.2107 314.159 85.528C312.965 84.8027 311.898 83.9493 310.959 82.968C310.021 81.944 309.21 80.8133 308.527 79.576L314.735 73.112C315.333 74.008 315.909 74.7547 316.463 75.352C317.018 75.9067 317.551 76.376 318.063 76.76C318.618 77.144 319.173 77.4213 319.727 77.592C320.325 77.7627 320.943 77.848 321.583 77.848C322.607 77.848 323.503 77.6133 324.271 77.144C325.082 76.632 325.701 75.9493 326.127 75.096C326.554 74.2427 326.767 73.24 326.767 72.088V51.672H318.575V42.2H344.303V51.672H337.391V73.368C337.391 75.544 337.007 77.5067 336.239 79.256C335.514 81.0053 334.49 82.52 333.167 83.8C331.845 85.0373 330.287 85.9973 328.495 86.68C326.746 87.32 324.826 87.64 322.735 87.64ZM343.717 87L361.445 42.2H370.661L388.261 87H377.253L368.805 64.28C368.464 63.384 368.123 62.424 367.781 61.4C367.44 60.376 367.099 59.3307 366.757 58.264C366.416 57.1547 366.075 56.088 365.733 55.064C365.435 53.9973 365.179 53.016 364.965 52.12L366.885 52.056C366.629 53.1227 366.331 54.168 365.989 55.192C365.691 56.216 365.371 57.24 365.029 58.264C364.731 59.2453 364.389 60.248 364.005 61.272C363.621 62.2533 363.259 63.2773 362.917 64.344L354.469 87H343.717ZM352.165 78.424L355.557 70.232H376.165L379.493 78.424H352.165ZM393.851 87V42.2H403.579L427.067 74.2L424.955 73.88C424.741 72.472 424.571 71.128 424.443 69.848C424.315 68.568 424.187 67.3093 424.059 66.072C423.973 64.8347 423.888 63.576 423.803 62.296C423.76 61.016 423.717 59.6293 423.675 58.136C423.675 56.6427 423.675 55.0213 423.675 53.272V42.2H434.235V87H424.379L399.867 53.976L403.131 54.424C403.344 56.472 403.515 58.2213 403.643 59.672C403.813 61.08 403.941 62.3387 404.027 63.448C404.155 64.5573 404.24 65.56 404.283 66.456C404.325 67.352 404.347 68.248 404.347 69.144C404.389 69.9973 404.411 70.9573 404.411 72.024V87H393.851ZM445.476 87V42.2H476.708V51.48H456.036V77.72H477.348V87H445.476ZM450.596 68.632V59.8H473.828V68.632H450.596ZM507.226 87V42.2H518.106V77.4H538.074V87H507.226ZM545.33 87V77.848H552.882V51.352H545.33V42.2H571.378V51.352H563.762V77.848H571.378V87H545.33ZM576.03 87L593.758 42.2H602.974L620.574 87H609.566L601.118 64.28C600.776 63.384 600.435 62.424 600.094 61.4C599.752 60.376 599.411 59.3307 599.07 58.264C598.728 57.1547 598.387 56.088 598.046 55.064C597.747 53.9973 597.491 53.016 597.278 52.12L599.198 52.056C598.942 53.1227 598.643 54.168 598.302 55.192C598.003 56.216 597.683 57.24 597.342 58.264C597.043 59.2453 596.702 60.248 596.318 61.272C595.934 62.2533 595.571 63.2773 595.23 64.344L586.782 87H576.03ZM584.478 78.424L587.87 70.232H608.478L611.806 78.424H584.478ZM626.163 87V42.2H635.891L659.379 74.2L657.267 73.88C657.054 72.472 656.883 71.128 656.755 69.848C656.627 68.568 656.499 67.3093 656.371 66.072C656.286 64.8347 656.201 63.576 656.115 62.296C656.073 61.016 656.03 59.6293 655.987 58.136C655.987 56.6427 655.987 55.0213 655.987 53.272V42.2H666.547V87H656.691L632.179 53.976L635.443 54.424C635.657 56.472 635.827 58.2213 635.955 59.672C636.126 61.08 636.254 62.3387 636.339 63.448C636.467 64.5573 636.553 65.56 636.595 66.456C636.638 67.352 636.659 68.248 636.659 69.144C636.702 69.9973 636.723 70.9573 636.723 72.024V87H626.163ZM698.588 87.64C695.004 87.64 691.762 87.064 688.86 85.912C685.959 84.76 683.463 83.1387 681.372 81.048C679.282 78.9573 677.682 76.504 676.572 73.688C675.463 70.8293 674.908 67.736 674.908 64.408C674.908 61.08 675.484 58.0293 676.636 55.256C677.831 52.44 679.516 49.9867 681.692 47.896C683.868 45.8053 686.428 44.184 689.372 43.032C692.359 41.88 695.602 41.304 699.1 41.304C701.575 41.304 703.9 41.624 706.076 42.264C708.295 42.904 710.3 43.7787 712.092 44.888C713.884 45.9973 715.399 47.2773 716.636 48.728L710.044 55.704C708.978 54.68 707.868 53.8267 706.716 53.144C705.607 52.4613 704.412 51.928 703.132 51.544C701.852 51.1173 700.487 50.904 699.036 50.904C697.159 50.904 695.431 51.2453 693.852 51.928C692.316 52.6107 690.951 53.5707 689.756 54.808C688.604 56.0027 687.708 57.432 687.068 59.096C686.428 60.7173 686.108 62.488 686.108 64.408C686.108 66.328 686.45 68.12 687.132 69.784C687.815 71.448 688.754 72.8987 689.948 74.136C691.143 75.3307 692.551 76.2907 694.172 77.016C695.836 77.6987 697.607 78.04 699.484 78.04C700.807 78.04 702.044 77.8267 703.196 77.4C704.391 76.9733 705.415 76.3973 706.268 75.672C707.122 74.9467 707.804 74.0933 708.316 73.112C708.828 72.088 709.084 71 709.084 69.848V68.184L710.492 70.36H698.14V61.848H719.196C719.282 62.3173 719.346 62.9573 719.388 63.768C719.431 64.5787 719.452 65.368 719.452 66.136C719.495 66.904 719.516 67.48 719.516 67.864C719.516 70.7653 718.983 73.432 717.916 75.864C716.892 78.2533 715.442 80.3227 713.564 82.072C711.687 83.8213 709.468 85.1867 706.908 86.168C704.348 87.1493 701.575 87.64 698.588 87.64Z" fill="white"/>
<path d="M81.9685 33H78.3748C76.4686 33 74.6405 33.8077 73.2926 35.2455C71.9446 36.6833 71.1874 38.6333 71.1874 40.6667V59.8333C71.1874 61.8666 70.4302 63.8167 69.0823 65.2545C67.7344 66.6922 65.9062 67.5 64 67.5C65.9062 67.5 67.7344 68.3077 69.0823 69.7455C70.4302 71.1833 71.1874 73.1333 71.1874 75.1666V94.3333C71.1874 98.5499 74.4217 102 78.3748 102H81.9685M160.031 102H163.625C165.531 102 167.36 101.192 168.707 99.7545C170.055 98.3167 170.813 96.3667 170.813 94.3333V75.1667C170.813 70.9501 174.047 67.5 178 67.5C176.094 67.5 174.266 66.6923 172.918 65.2545C171.57 63.8167 170.813 61.8667 170.813 59.8334V40.6667C170.813 38.6334 170.055 36.6833 168.707 35.2456C167.36 33.8078 165.531 33.0001 163.625 33.0001H160.031" stroke="#E35D45" stroke-width="8" stroke-linecap="round" stroke-linejoin="round"/>
<rect width="11.5647" height="11.5081" transform="matrix(0.822996 0.568048 -0.579106 0.815252 138.318 36.3541)" fill="#00C98D"/>
<rect width="11.5647" height="50.3478" transform="matrix(0.822996 0.568048 -0.579106 0.815252 130.822 46.9089)" fill="#00C98D"/>
<path d="M99.7592 100.622L101.261 89.861L109.504 95.5502L99.7592 100.622Z" fill="#00C98D"/>
</svg>
