<svg width="588" height="453" viewBox="0 0 588 453" fill="none" xmlns="http://www.w3.org/2000/svg">
<path d="M191.286 70H181.828C176.812 70 172.001 72.1072 168.454 75.8579C164.907 79.6086 162.914 84.6957 162.914 90V140C162.914 145.304 160.922 150.391 157.374 154.142C153.827 157.893 149.016 160 144 160C149.016 160 153.827 162.107 157.374 165.858C160.922 169.608 162.914 174.696 162.914 180V230C162.914 241 171.426 250 181.828 250H191.286M396.714 250H406.172C411.188 250 415.999 247.893 419.546 244.142C423.093 240.391 425.086 235.304 425.086 230V180C425.086 169 433.597 160 444 160C438.984 160 434.173 157.893 430.626 154.142C427.079 150.391 425.086 145.304 425.086 140V90.0001C425.086 84.6958 423.093 79.6087 419.546 75.858C415.999 72.1073 411.188 70.0001 406.172 70.0001H396.714" stroke="#F24E1E" stroke-width="15" stroke-linecap="round" stroke-linejoin="round"/>
<rect width="33.5325" height="27.6644" transform="matrix(0.822341 0.568995 -0.580243 0.814443 333.339 82.9954)" fill="#00C98D"/>
<rect width="33.5325" height="121.032" transform="matrix(0.822341 0.568995 -0.580243 0.814443 315.28 108.342)" fill="#00C98D"/>
<path d="M242.787 238.987L244.391 211.715L268.272 228.238L242.787 238.987Z" fill="#00C98D"/>
<path d="M50.7933 369.088L77.4173 315.2H87.5933L61.0973 369.088H50.7933ZM82.9808 369.088L109.605 315.2H119.781L93.2848 369.088H82.9808Z" fill="#F24E1E"/>
<path d="M137.235 360.64C135.614 360.64 134.078 360.448 132.627 360.064C131.177 359.723 129.854 359.211 128.659 358.528C127.465 357.803 126.398 356.949 125.459 355.968C124.521 354.944 123.71 353.813 123.027 352.576L129.235 346.112C129.833 347.008 130.409 347.755 130.963 348.352C131.518 348.907 132.051 349.376 132.563 349.76C133.118 350.144 133.673 350.421 134.227 350.592C134.825 350.763 135.443 350.848 136.083 350.848C137.107 350.848 138.003 350.613 138.771 350.144C139.582 349.632 140.201 348.949 140.627 348.096C141.054 347.243 141.267 346.24 141.267 345.088V324.672H133.075V315.2H158.803V324.672H151.891V346.368C151.891 348.544 151.507 350.507 150.739 352.256C150.014 354.005 148.99 355.52 147.667 356.8C146.345 358.037 144.787 358.997 142.995 359.68C141.246 360.32 139.326 360.64 137.235 360.64ZM158.217 360L175.945 315.2H185.161L202.761 360H191.753L183.305 337.28C182.964 336.384 182.623 335.424 182.281 334.4C181.94 333.376 181.599 332.331 181.257 331.264C180.916 330.155 180.575 329.088 180.233 328.064C179.935 326.997 179.679 326.016 179.465 325.12L181.385 325.056C181.129 326.123 180.831 327.168 180.489 328.192C180.191 329.216 179.871 330.24 179.529 331.264C179.231 332.245 178.889 333.248 178.505 334.272C178.121 335.253 177.759 336.277 177.417 337.344L168.969 360H158.217ZM166.665 351.424L170.057 343.232H190.665L193.993 351.424H166.665ZM208.351 360V315.2H218.079L241.567 347.2L239.455 346.88C239.241 345.472 239.071 344.128 238.943 342.848C238.815 341.568 238.687 340.309 238.559 339.072C238.473 337.835 238.388 336.576 238.303 335.296C238.26 334.016 238.217 332.629 238.175 331.136C238.175 329.643 238.175 328.021 238.175 326.272V315.2H248.735V360H238.879L214.367 326.976L217.631 327.424C217.844 329.472 218.015 331.221 218.143 332.672C218.313 334.08 218.441 335.339 218.527 336.448C218.655 337.557 218.74 338.56 218.783 339.456C218.825 340.352 218.847 341.248 218.847 342.144C218.889 342.997 218.911 343.957 218.911 345.024V360H208.351ZM259.976 360V315.2H291.208V324.48H270.536V350.72H291.848V360H259.976ZM265.096 341.632V332.8H288.328V341.632H265.096ZM321.726 360V315.2H332.606V350.4H352.574V360H321.726ZM359.83 360V350.848H367.382V324.352H359.83V315.2H385.878V324.352H378.262V350.848H385.878V360H359.83ZM390.53 360L408.258 315.2H417.474L435.074 360H424.066L415.618 337.28C415.276 336.384 414.935 335.424 414.594 334.4C414.252 333.376 413.911 332.331 413.57 331.264C413.228 330.155 412.887 329.088 412.546 328.064C412.247 326.997 411.991 326.016 411.778 325.12L413.698 325.056C413.442 326.123 413.143 327.168 412.802 328.192C412.503 329.216 412.183 330.24 411.842 331.264C411.543 332.245 411.202 333.248 410.818 334.272C410.434 335.253 410.071 336.277 409.73 337.344L401.282 360H390.53ZM398.978 351.424L402.37 343.232H422.978L426.306 351.424H398.978ZM440.663 360V315.2H450.391L473.879 347.2L471.767 346.88C471.554 345.472 471.383 344.128 471.255 342.848C471.127 341.568 470.999 340.309 470.871 339.072C470.786 337.835 470.701 336.576 470.615 335.296C470.573 334.016 470.53 332.629 470.487 331.136C470.487 329.643 470.487 328.021 470.487 326.272V315.2H481.047V360H471.191L446.679 326.976L449.943 327.424C450.157 329.472 450.327 331.221 450.455 332.672C450.626 334.08 450.754 335.339 450.839 336.448C450.967 337.557 451.053 338.56 451.095 339.456C451.138 340.352 451.159 341.248 451.159 342.144C451.202 342.997 451.223 343.957 451.223 345.024V360H440.663ZM513.088 360.64C509.504 360.64 506.262 360.064 503.36 358.912C500.459 357.76 497.963 356.139 495.872 354.048C493.782 351.957 492.182 349.504 491.072 346.688C489.963 343.829 489.408 340.736 489.408 337.408C489.408 334.08 489.984 331.029 491.136 328.256C492.331 325.44 494.016 322.987 496.192 320.896C498.368 318.805 500.928 317.184 503.872 316.032C506.859 314.88 510.102 314.304 513.6 314.304C516.075 314.304 518.4 314.624 520.576 315.264C522.795 315.904 524.8 316.779 526.592 317.888C528.384 318.997 529.899 320.277 531.136 321.728L524.544 328.704C523.478 327.68 522.368 326.827 521.216 326.144C520.107 325.461 518.912 324.928 517.632 324.544C516.352 324.117 514.987 323.904 513.536 323.904C511.659 323.904 509.931 324.245 508.352 324.928C506.816 325.611 505.451 326.571 504.256 327.808C503.104 329.003 502.208 330.432 501.568 332.096C500.928 333.717 500.608 335.488 500.608 337.408C500.608 339.328 500.95 341.12 501.632 342.784C502.315 344.448 503.254 345.899 504.448 347.136C505.643 348.331 507.051 349.291 508.672 350.016C510.336 350.699 512.107 351.04 513.984 351.04C515.307 351.04 516.544 350.827 517.696 350.4C518.891 349.973 519.915 349.397 520.768 348.672C521.622 347.947 522.304 347.093 522.816 346.112C523.328 345.088 523.584 344 523.584 342.848V341.184L524.992 343.36H512.64V334.848H533.696C533.782 335.317 533.846 335.957 533.888 336.768C533.931 337.579 533.952 338.368 533.952 339.136C533.995 339.904 534.016 340.48 534.016 340.864C534.016 343.765 533.483 346.432 532.416 348.864C531.392 351.253 529.942 353.323 528.064 355.072C526.187 356.821 523.968 358.187 521.408 359.168C518.848 360.149 516.075 360.64 513.088 360.64Z" fill="black"/>
</svg>
